<?xml version="1.0" encoding="UTF-8"?>
<svg version="1.1" xmlns="http://www.w3.org/2000/svg" width="512" height="250">
<path d="M0 0 C2.02652852 1.56528474 2.88263942 2.55989782 3.546875 5.05078125 C3.61390625 5.79714844 3.6809375 6.54351562 3.75 7.3125 C3.82734375 8.05113281 3.9046875 8.78976563 3.984375 9.55078125 C4 12 4 12 3 18 C8.28 18 13.56 18 19 18 C19.20962704 13.19920081 19.20962704 13.19920081 19.38793945 8.3972168 C19.54552042 5.53430427 19.72031827 3.42408713 21.31640625 1.00390625 C24.20845891 -0.72058919 26.85738595 0.30164132 30 1 C31.5273211 2.5273211 31.13452391 3.90004023 31.14526367 6.02905273 C31.15164352 6.88341415 31.15802338 7.73777557 31.16459656 8.61802673 C31.16570938 9.54716385 31.1668222 10.47630096 31.16796875 11.43359375 C31.17296135 12.85600121 31.17296135 12.85600121 31.17805481 14.30714417 C31.18312819 16.31714389 31.18546301 18.32715208 31.18530273 20.3371582 C31.18748822 23.42087619 31.20563683 26.50423606 31.22460938 29.58789062 C31.22754334 31.5364571 31.22952812 33.48502529 31.23046875 35.43359375 C31.23765427 36.36070663 31.24483978 37.28781952 31.25224304 38.24302673 C31.24916641 39.10054031 31.24608978 39.95805389 31.24291992 40.84155273 C31.24434494 41.59798569 31.24576996 42.35441864 31.24723816 43.1337738 C31 45 31 45 29 47 C25.5 47.3125 25.5 47.3125 22 47 C18.07895508 41.11843262 18.9175003 34.84747498 19 28 C13.72 28 8.44 28 3 28 C3 33.61 3 39.22 3 45 C2.34 45 1.68 45 1 45 C1 45.66 1 46.32 1 47 C-2.375 47.125 -2.375 47.125 -6 47 C-9.85537071 43.14462929 -9.16006235 38.31010296 -9.16796875 33.12890625 C-9.17129715 32.36956284 -9.17462555 31.61021942 -9.17805481 30.8278656 C-9.18310749 29.22501225 -9.18546365 27.62214842 -9.18530273 26.01928711 C-9.18748924 23.57452995 -9.2056622 21.13022428 -9.22460938 18.68554688 C-9.22754369 17.12500154 -9.22952823 15.56445406 -9.23046875 14.00390625 C-9.23765427 13.27667862 -9.24483978 12.54945099 -9.25224304 11.80018616 C-9.23423101 7.77560343 -8.92351759 4.5717637 -7 1 C-4.45132831 -0.27433584 -2.82594567 -0.27570202 0 0 Z " fill="#FDFBFD" transform="translate(159,97)"/>
<path d="M0 0 C1.32 0.66 2.64 1.32 4 2 C4 7.94 4 13.88 4 20 C11.59 20 19.18 20 27 20 C27 14.06 27 8.12 27 2 C28.32 1.34 29.64 0.68 31 0 C33.05136201 3.07704302 33.24965896 3.69584391 33.24291992 7.16430664 C33.24753487 8.41559105 33.24753487 8.41559105 33.25224304 9.69215393 C33.24505753 10.5890947 33.23787201 11.48603546 33.23046875 12.41015625 C33.23001053 13.33340195 33.22955231 14.25664764 33.2290802 15.20787048 C33.22605976 17.15885708 33.21817968 19.1098413 33.20581055 21.06079102 C33.18755011 24.05428567 33.18530092 27.04747108 33.18554688 30.04101562 C33.18063175 31.93489852 33.17480346 33.82877931 33.16796875 35.72265625 C33.16685593 36.62162125 33.1657431 37.52058624 33.16459656 38.4467926 C33.15821671 39.27783005 33.15183685 40.10886749 33.14526367 40.96508789 C33.13954597 42.06404137 33.13954597 42.06404137 33.13371277 43.18519592 C33 45 33 45 32 47 C30.35 46.67 28.7 46.34 27 46 C27 39.4 27 32.8 27 26 C19.41 26 11.82 26 4 26 C4 32.6 4 39.2 4 46 C1.525 46.495 1.525 46.495 -1 47 C-2 46 -2 46 -2.12025452 44.17137146 C-2.11803391 43.37417191 -2.11581329 42.57697235 -2.11352539 41.75561523 C-2.11344986 40.85475693 -2.11337433 39.95389862 -2.11329651 39.02574158 C-2.10813522 38.04658279 -2.10297394 37.06742401 -2.09765625 36.05859375 C-2.0962413 35.06118668 -2.09482635 34.0637796 -2.09336853 33.03614807 C-2.08775114 29.83656876 -2.07519571 26.63705831 -2.0625 23.4375 C-2.05748724 21.27408955 -2.05292395 19.11067801 -2.04882812 16.94726562 C-2.03777607 11.63148675 -2.02102104 6.31574829 -2 1 C-1.34 0.67 -0.68 0.34 0 0 Z " fill="#FEF9FE" transform="translate(240,97)"/>
<path d="M0 0 C4.32453963 2.48431 6.23901236 5.365822 8 10 C8.25 13.3125 8.25 13.3125 8 16 C6.31699331 17.68300669 4.17991273 17.22809077 1.87109375 17.31640625 C0.83662109 17.35830078 -0.19785156 17.40019531 -1.26367188 17.44335938 C-2.35228516 17.48267578 -3.44089844 17.52199219 -4.5625 17.5625 C-6.2012207 17.62727539 -6.2012207 17.62727539 -7.87304688 17.69335938 C-10.58189564 17.79982068 -13.29083992 17.90183516 -16 18 C-14.15993692 22.95582364 -14.15993692 22.95582364 -10 26 C-4.19260167 26.75281089 -1.66800475 25.28882153 3 22 C3.99 22.33 4.98 22.66 6 23 C6 24.32 6 25.64 6 27 C5.34 27 4.68 27 4 27 C4 27.66 4 28.32 4 29 C-1.89735647 31.68061658 -6.67994269 33.12134097 -13 31 C-17.14961806 28.65827728 -20.12683251 26.006982 -22.046875 21.59375 C-23.29891072 16.64668203 -23.30788233 12.50324434 -21.19140625 7.82421875 C-15.86133495 -0.33690681 -9.15526964 -1.87499922 0 0 Z M-16 9 C-16 10.32 -16 11.64 -16 13 C-10.06 13 -4.12 13 2 13 C2 11.35 2 9.7 2 8 C1.34 8 0.68 8 0 8 C0 7.34 0 6.68 0 6 C-6.45575921 1.69616052 -11.18263595 3.8301459 -16 9 Z " fill="#FDF8FE" transform="translate(302,113)"/>
<path d="M0 0 C0 0.66 0 1.32 0 2 C0.99 2.33 1.98 2.66 3 3 C5.94096225 7.97701304 7.41633736 11.71014455 6.375 17.4375 C4.5941059 22.05163472 2.5481854 25.46997601 -1.7890625 28.07421875 C-6.92771167 30.33645275 -11.59952149 30.45281889 -17 29 C-22.00234509 26.54601939 -25.14170237 23.2738279 -27 18 C-27.95165883 13.05493171 -27.42569818 9.11131567 -25 4.6875 C-18.8521062 -3.92299551 -9.04621624 -5.02106498 0 0 Z M-18 4 C-20.86829568 8.40488264 -21.55830058 11.78919458 -21 17 C-19.80874943 20.156814 -18.91864736 22.27820564 -16.25 24.375 C-11.90745129 25.58126353 -8.32083588 25.58703817 -4.1875 23.75 C-1.31659668 21.45327734 -0.17322793 19.44696271 0.265625 15.78125 C0.26046875 15.0284375 0.2553125 14.275625 0.25 13.5 C0.25515625 12.7471875 0.2603125 11.994375 0.265625 11.21875 C-0.17322793 7.55303729 -1.31659668 5.54672266 -4.1875 3.25 C-8.72309313 1.23418083 -13.93558467 0.80653081 -18 4 Z " fill="#FDF8FE" transform="translate(370,115)"/>
<path d="M0 0 C1.63354492 1.12890625 1.63354492 1.12890625 3 3 C3.37231445 5.86328125 3.37231445 5.86328125 3.36328125 9.3125 C3.36263672 10.55257812 3.36199219 11.79265625 3.36132812 13.0703125 C3.34521484 14.36710937 3.32910156 15.66390625 3.3125 17 C3.31572266 18.29679687 3.31894531 19.59359375 3.32226562 20.9296875 C3.26698067 30.599529 3.26698067 30.599529 1 34 C-2.5 34.3125 -2.5 34.3125 -6 34 C-9.35856966 30.64143034 -8.29715521 26.22535573 -8.32226562 21.66210938 C-8.32009033 20.98946045 -8.31791504 20.31681152 -8.31567383 19.6237793 C-8.31251696 17.57351386 -8.3359576 15.52469595 -8.36132812 13.47460938 C-8.36197266 12.18490234 -8.36261719 10.89519531 -8.36328125 9.56640625 C-8.36626221 8.37990479 -8.36924316 7.19340332 -8.37231445 5.97094727 C-8 3 -8 3 -6.63354492 1.11303711 C-4.28713265 -0.48572146 -2.77521054 -0.41628158 0 0 Z " fill="#FDFAFD" transform="translate(205,110)"/>
<path d="M0 0 C1.32 0.33 2.64 0.66 4 1 C4 17.17 4 33.34 4 50 C2.35 50 0.7 50 -1 50 C-1.19283022 43.84391425 -1.37146212 37.68763899 -1.53710938 31.53076172 C-1.59540705 29.4375512 -1.65754218 27.34444381 -1.72363281 25.25146484 C-1.81811214 22.2381468 -1.89865731 19.22472407 -1.9765625 16.2109375 C-2.00875885 15.27945892 -2.0409552 14.34798035 -2.0741272 13.38827515 C-2.18654656 8.4813917 -1.95348767 4.60703064 0 0 Z " fill="#FEF9FD" transform="translate(318,94)"/>
<path d="M0 0 C0.99 0.33 1.98 0.66 3 1 C3 17.17 3 33.34 3 50 C1.35 49.67 -0.3 49.34 -2 49 C-2 33.16 -2 17.32 -2 1 C-1.34 0.67 -0.68 0.34 0 0 Z " fill="#FEF9FE" transform="translate(333,94)"/>
<path d="M0 0 C0 1.32 0 2.64 0 4 C-1.09699219 3.95359375 -2.19398438 3.9071875 -3.32421875 3.859375 C-4.7786185 3.8218421 -6.23304783 3.78544357 -7.6875 3.75 C-8.40873047 3.71648437 -9.12996094 3.68296875 -9.87304688 3.6484375 C-13.73011706 3.57798873 -15.58857954 3.74881699 -18.96875 5.8125 C-23.17369925 10.34090688 -22.10263953 17.14954676 -22 23 C-22.99 22.67 -23.98 22.34 -25 22 C-25.0814222 19.77144426 -25.13938079 17.54202345 -25.1875 15.3125 C-25.22230469 14.07113281 -25.25710937 12.82976562 -25.29296875 11.55078125 C-24.98026447 7.76080532 -24.29753926 5.98409805 -22 3 C-15.41978282 -1.33696132 -7.57595835 -0.26325724 0 0 Z " fill="#FDF4FE" transform="translate(164,80)"/>
<path d="M0 0 C2 1 2 1 2.8125 3.25 C3.05930695 6.86983532 2.35661495 8.26328587 0 11 C-2.9375 12.0625 -2.9375 12.0625 -6 12 C-8.375 10.4375 -8.375 10.4375 -10 8 C-10.5 4.9375 -10.5 4.9375 -10 2 C-6.92951293 -1.66096535 -4.38057166 -1.14275782 0 0 Z " fill="#FDFAFC" transform="translate(206,96)"/>
<path d="M0 0 C15.26015045 -0.57146194 15.26015045 -0.57146194 21 3 C23.76399517 5.64720665 23.9991008 6.98805867 24.29296875 10.890625 C24.27314945 12.34404009 24.23754845 13.79731167 24.1875 15.25 C24.16719727 16.36761719 24.16719727 16.36761719 24.14648438 17.5078125 C24.11127204 19.33885416 24.05746851 21.16952169 24 23 C23.01 23 22.02 23 21 23 C21 17.72 21 12.44 21 7 C20.34 7 19.68 7 19 7 C19 6.34 19 5.68 19 5 C14.84373632 3.99073521 10.95634906 3.89760421 6.6875 3.9375 C5.43324219 3.94652344 4.17898437 3.95554687 2.88671875 3.96484375 C1.93410156 3.97644531 0.98148438 3.98804687 0 4 C0 2.68 0 1.36 0 0 Z " fill="#FDF2FE" transform="translate(196,80)"/>
<path d="M0 0 C0.99 0 1.98 0 3 0 C2.95875 1.134375 2.9175 2.26875 2.875 3.4375 C2.89215505 6.64549477 3.13907227 9.71257091 3.6875 12.875 C3.81511719 13.61492187 3.94273437 14.35484375 4.07421875 15.1171875 C4.8790831 17.18546117 4.8790831 17.18546117 7.09375 18.25 C10.70114195 19.18093986 14.11887087 19.21689891 17.8125 19.125 C18.50537109 19.11597656 19.19824219 19.10695312 19.91210938 19.09765625 C21.60822395 19.07426157 23.30415871 19.03839641 25 19 C25 19.99 25 20.98 25 22 C22.62468606 22.0543965 20.25064117 22.09385864 17.875 22.125 C17.20984375 22.14175781 16.5446875 22.15851563 15.859375 22.17578125 C10.21868977 22.23108209 5.80068559 21.70591267 1.625 17.75 C-1.48493355 12.6353159 -0.28262436 5.73099404 0 0 Z " fill="#FDF1FE" transform="translate(139,137)"/>
<path d="M0 0 C0.99 0 1.98 0 3 0 C3 4.95 3 9.9 3 15 C2.34 15 1.68 15 1 15 C0.87625 15.61875 0.7525 16.2375 0.625 16.875 C0 19 0 19 -2 21 C-5.77408886 22.42876221 -9.77537881 22.1113375 -13.75 22.0625 C-14.44738281 22.05798828 -15.14476562 22.05347656 -15.86328125 22.04882812 C-17.57555803 22.0371002 -19.28779033 22.01916653 -21 22 C-21.33 21.01 -21.66 20.02 -22 19 C-20.72125 19.04125 -19.4425 19.0825 -18.125 19.125 C-12.97306599 19.125 -7.93768779 18.51210855 -3 17 C0.52523484 13.47476516 0.05271143 7.80618633 0.0625 3 C0.041875 2.01 0.02125 1.02 0 0 Z " fill="#FEF1FE" transform="translate(217,137)"/>
</svg>
